<?xml version="1.0" encoding="utf-8"?>
<!-- Generator: Adobe Illustrator 24.0.1, SVG Export Plug-In . SVG Version: 6.00 Build 0)  -->
<svg version="1.1" xmlns="http://www.w3.org/2000/svg" xmlns:xlink="http://www.w3.org/1999/xlink" x="0px" y="0px"
	 viewBox="0 0 500 500" style="enable-background:new 0 0 500 500;" xml:space="preserve">
<style type="text/css">
	.st0{fill:#F0F0F0;}
	.st1{fill:#E0E0E0;}
	.st2{fill:#27DEBF;}
	.st3{opacity:0.1;}
	.st4{fill:#FFFFFF;}
	.st5{opacity:0.2;}
	.st6{fill:#EBEBEB;}
	.st7{fill:#FAFAFA;}
	.st8{fill:#263238;}
	.st9{fill:none;stroke:#EBEBEB;stroke-width:0.5692;stroke-linecap:round;stroke-miterlimit:10;}
	.st10{fill:none;stroke:#27DEBF;stroke-width:0.5692;stroke-linecap:round;stroke-miterlimit:10;}
	.st11{opacity:0.25;}
	.st12{fill:#455A64;}
	.st13{fill:#F28F8F;}
	.st14{fill:#FFA8A7;}
	.st15{fill:#37474F;}
	.st16{fill:#F5F5F5;}
	.st17{opacity:0.3;}
</style>
<g id="Floor">
</g>
<g id="Shadow">
</g>
<g id="Plants">
</g>
<g id="Notebook_1_">
</g>
<g id="Character">
</g>
<g id="Coffee">
	<g>
		<path id="Floor_4_" class="st0" d="M413.05,405.53c-89.58,51.57-234.81,51.57-324.39,0c-89.58-51.57-89.58-135.17,0-186.74
			c89.58-51.57,234.81-51.57,324.39,0C502.62,270.36,502.62,353.96,413.05,405.53z"/>
		<path id="Shadows_1_" class="st1" d="M427.45,349.73l-139,80.25c-2.49,1.44-6.53,1.44-9.02,0L68.55,308.23
			c-2.49-1.44-2.49-3.77,0-5.21l138.99-80.25c2.49-1.44,6.53-1.44,9.02,0l210.89,121.75C429.94,345.96,429.94,348.29,427.45,349.73z
			"/>
		<path id="Shadow_3_" class="st1" d="M86.14,229.49c16.4-6.57,42.56-6.57,58.42,0c15.86,6.57,15.86,17.22,0,23.78
			c-15.86,6.57-42.01,6.57-58.42,0C69.73,246.7,69.73,236.06,86.14,229.49z"/>
		<ellipse id="Shadow_2_" class="st1" cx="415.96" cy="287.99" rx="33.63" ry="16.03"/>
		<g id="Plants_4_">
			<g id="XMLID_1237_">
				<path id="XMLID_1241_" class="st2" d="M436.49,258.94c0.51-6.35,5.41-17.18,12.66-24.9c7.25-7.72,18.86-11.43,26.01-8.32
					c6.67,2.9,5.2,11.83-3.6,17.12c-8.8,5.29-21.9,11.77-26.39,21.78l-8.69,12.02V258.94z"/>
				<path id="XMLID_1240_" class="st3" d="M436.49,258.94c0.51-6.35,5.41-17.18,12.66-24.9c7.25-7.72,18.86-11.43,26.01-8.32
					c6.67,2.9,5.2,11.83-3.6,17.12c-8.8,5.29-21.9,11.77-26.39,21.78l-8.69,12.02V258.94z"/>
				<g id="XMLID_1238_">
					<path id="XMLID_1239_" class="st4" d="M435.58,267.26c-0.05,0-0.09-0.01-0.14-0.02c-0.23-0.08-0.36-0.33-0.28-0.56
						c7.14-21.54,27.38-35.98,35.79-37.36c0.23-0.04,0.47,0.12,0.51,0.36c0.04,0.24-0.12,0.47-0.36,0.51
						c-8.22,1.35-28.07,15.55-35.09,36.77C435.93,267.14,435.76,267.26,435.58,267.26z"/>
				</g>
			</g>
			<g id="XMLID_1235_">
				<path id="XMLID_1236_" class="st2" d="M437.44,285.16c1.31-3.49,6.14-9.03,13.59-13.33c8.23-4.76,18.31-6.44,20.92-10.44
					c3.14-4.81-0.72-9.91-8.82-9.56c-8.09,0.35-23.06,10.15-26.64,26.43L437.44,285.16z"/>
			</g>
			<g id="XMLID_1233_">
				<path id="XMLID_1234_" class="st4" d="M437.07,278.55c-0.07,0-0.13-0.01-0.2-0.05c-0.22-0.11-0.3-0.37-0.2-0.59
					c6.97-13.87,21.67-20.35,29.26-22c0.24-0.05,0.47,0.1,0.52,0.34c0.05,0.24-0.1,0.47-0.34,0.52
					c-7.44,1.61-21.84,7.96-28.66,21.54C437.39,278.46,437.23,278.55,437.07,278.55z"/>
			</g>
		</g>
		<g id="XMLID_220_">
			<path id="XMLID_224_" class="st2" d="M323.28,279.99v-2.74l-103.9-57.24c-1.36-0.79-3.57-0.79-4.93,0L70.38,301.3
				c0,0,0,2.21,0,2.72c0,0.52,0.34,1.03,1.02,1.42l103.9,59.98L323.28,279.99z"/>
			<path id="XMLID_223_" class="st3" d="M70.38,304.02c0-0.51,0-2.72,0-2.72l1.76-0.99l103.16,62.38v2.74L71.4,305.44
				C70.72,305.05,70.38,304.54,70.38,304.02z"/>
			<path id="XMLID_222_" class="st2" d="M323.28,277.25l-103.9-59.98c-1.36-0.79-3.57-0.79-4.93,0L71.4,299.86
				c-1.36,0.79-1.36,2.06,0,2.85l103.9,59.98L323.28,277.25z"/>
			<polygon id="XMLID_221_" class="st5" points="175.29,365.43 175.29,362.69 323.28,277.25 323.28,279.99 			"/>
		</g>
		<g id="XMLID_216_">
			<path id="XMLID_219_" class="st2" d="M320.9,281.31l105.03,55.3l2.16,3.4v2.73c0,1.37-0.79,2.6-2.16,3.4l-138.42,79.92
				c-1,0.58-2.28,0.89-3.6,0.89c-1.32,0-2.6-0.32-3.6-0.89l-102.69-59.29v-2.73L320.9,281.31z"/>
			<path id="XMLID_218_" class="st3" d="M320.9,281.31l105.03,55.3l2.16,3.4v2.73c0,1.37-0.79,2.6-2.16,3.4l-138.42,79.92
				c-1,0.58-2.28,0.89-3.6,0.89c-1.32,0-2.6-0.32-3.6-0.89l-102.69-59.29v-2.73L320.9,281.31z"/>
			<path id="XMLID_217_" class="st2" d="M283.91,424.21c1.32,0,2.6-0.32,3.6-0.89l138.42-79.92c1.37-0.79,2.16-2.03,2.16-3.4
				c0-1.37-0.79-2.6-2.16-3.4l-100.41-57.97l-147.91,85.4l102.69,59.29C281.3,423.89,282.58,424.21,283.91,424.21z"/>
		</g>
		<g id="XMLID_212_">
			<path id="XMLID_215_" class="st6" d="M325.53,270.61l99.27,57.31l1.02,1.42V340v0c0,0.51-0.34,1.03-1.02,1.42l-138.43,79.92
				c-1.36,0.79-3.57,0.79-4.93,0l-99.27-57.31v-10.65L325.53,270.61z"/>
			<path id="XMLID_214_" class="st0" d="M182.17,353.38l1.24,0.72l16.15,9.32l3.01,1.74l78.87,45.53c1.37,0.79,3.57,0.79,4.93,0
				l138.43-79.93c1.35-0.79,1.35-2.06,0-2.85l-1.32-0.76l-97.95-56.55L183.4,352.67l-0.3,0.18L182.17,353.38z"/>
			<path id="XMLID_213_" class="st1" d="M283.91,411.29v10.65c0.89,0,1.79-0.19,2.46-0.59l138.43-79.93
				c0.67-0.39,1.01-0.9,1.01-1.42v-10.65c0,0.51-0.34,1.02-1.01,1.42l-138.43,79.93C285.7,411.09,284.8,411.29,283.91,411.29z"/>
		</g>
		<path id="XMLID_211_" class="st7" d="M182.17,351.96l17.87,10.31l2.8,1.62l78.6,45.38c1.37,0.79,3.57,0.79,4.93,0l123.96-71.57
			c1.12-0.61,2.15-1.22,3.12-1.8c5.04-3.07,8.08-5.82,10.03-8.74c0.08-0.13,0.16-0.24,0.24-0.36c0.16-0.24,0.26-0.49,0.31-0.74
			c0.23-1.09-0.5-2.14-1.73-2.5c-2.4-0.72-6.03-1.99-9.35-3.89c-0.05-0.02-0.08-0.05-0.13-0.07l-87.3-50.4L182.17,351.96z"/>
		<g id="XMLID_169_">
			<g id="XMLID_206_">
				<path id="XMLID_210_" class="st3" d="M200.67,350.71c1.26,0.74,1.26,1.93,0,2.67c-1.26,0.74-3.33,0.74-4.6,0s-1.28-1.93,0-2.67
					C197.34,349.97,199.4,349.97,200.67,350.71z"/>
				<path id="XMLID_208_" class="st8" d="M182.69,349.26c0,0.75,0.06,1.53,0.17,2.3l1.62-0.93c-0.06-0.46-0.08-0.91-0.08-1.37
					c0-2.77,0.85-4.85,2.33-5.7c0.5-0.28,1.06-0.43,1.66-0.43c0.87,0,1.82,0.3,2.82,0.87c3.07,1.79,5.74,5.74,6.94,9.93
					c0.58,0.03,1.17-0.03,1.7-0.2c-1.31-4.7-4.31-9.19-7.79-11.2c-2.24-1.29-4.44-1.45-6.19-0.43
					C183.85,343.25,182.69,345.87,182.69,349.26z"/>
				<path id="XMLID_207_" class="st8" d="M183.02,352.45c0.01,0.13,0.05,0.26,0.08,0.4l0.3-0.18L183.02,352.45z"/>
			</g>
			<g id="XMLID_202_">
				<path id="XMLID_205_" class="st3" d="M214.54,342.7c1.26,0.74,1.26,1.93,0,2.67c-1.26,0.74-3.33,0.74-4.6,0
					c-1.28-0.74-1.28-1.93,0-2.67C211.21,341.96,213.27,341.96,214.54,342.7z"/>
				<path id="XMLID_203_" class="st8" d="M196.56,341.25c0,0.75,0.06,1.53,0.17,2.3l1.62-0.93c-0.06-0.46-0.08-0.91-0.08-1.37
					c0-2.77,0.85-4.85,2.33-5.7c0.5-0.28,1.06-0.43,1.66-0.43c0.87,0,1.82,0.3,2.82,0.87c3.07,1.79,5.74,5.74,6.94,9.93
					c0.58,0.03,1.17-0.03,1.7-0.2c-1.31-4.7-4.31-9.19-7.79-11.2c-2.24-1.29-4.44-1.45-6.19-0.43
					C197.72,335.24,196.56,337.86,196.56,341.25z"/>
			</g>
			<g id="XMLID_198_">
				<path id="XMLID_201_" class="st3" d="M228.41,334.69c1.26,0.74,1.26,1.93,0,2.67c-1.26,0.74-3.33,0.74-4.6,0s-1.28-1.93,0-2.67
					C225.09,333.95,227.15,333.95,228.41,334.69z"/>
				<path id="XMLID_199_" class="st8" d="M210.44,333.24c0,0.75,0.06,1.53,0.17,2.3l1.62-0.93c-0.06-0.46-0.08-0.91-0.08-1.37
					c0-2.77,0.85-4.85,2.33-5.7c0.5-0.28,1.06-0.43,1.66-0.43c0.87,0,1.82,0.3,2.82,0.87c3.07,1.79,5.74,5.74,6.94,9.93
					c0.58,0.03,1.17-0.03,1.7-0.2c-1.31-4.7-4.31-9.19-7.79-11.2c-2.24-1.29-4.44-1.45-6.19-0.43
					C211.6,327.23,210.44,329.85,210.44,333.24z"/>
			</g>
			<g id="XMLID_194_">
				<path id="XMLID_197_" class="st3" d="M242.29,326.68c1.26,0.74,1.26,1.93,0,2.67c-1.26,0.74-3.33,0.74-4.6,0
					c-1.28-0.74-1.28-1.93,0-2.67C238.96,325.94,241.02,325.94,242.29,326.68z"/>
				<path id="XMLID_195_" class="st8" d="M224.31,325.23c0,0.75,0.06,1.53,0.17,2.3l1.62-0.93c-0.06-0.46-0.08-0.91-0.08-1.37
					c0-2.77,0.85-4.85,2.33-5.7c0.5-0.28,1.06-0.43,1.66-0.43c0.87,0,1.82,0.3,2.82,0.87c3.07,1.79,5.74,5.74,6.94,9.93
					c0.58,0.03,1.17-0.03,1.7-0.2c-1.31-4.7-4.31-9.19-7.79-11.2c-2.24-1.29-4.44-1.45-6.19-0.43
					C225.47,319.22,224.31,321.84,224.31,325.23z"/>
			</g>
			<g id="XMLID_190_">
				<path id="XMLID_193_" class="st3" d="M256.16,318.67c1.26,0.74,1.26,1.93,0,2.67c-1.26,0.74-3.33,0.74-4.6,0
					c-1.28-0.74-1.28-1.93,0-2.67C252.84,317.93,254.9,317.93,256.16,318.67z"/>
				<path id="XMLID_191_" class="st8" d="M238.18,317.22c0,0.75,0.06,1.53,0.17,2.3l1.62-0.93c-0.06-0.46-0.08-0.91-0.08-1.37
					c0-2.77,0.85-4.85,2.33-5.7c0.5-0.28,1.06-0.43,1.66-0.43c0.87,0,1.82,0.3,2.82,0.87c3.07,1.79,5.74,5.74,6.94,9.93
					c0.58,0.03,1.17-0.03,1.7-0.2c-1.31-4.7-4.31-9.19-7.79-11.2c-2.24-1.29-4.44-1.45-6.19-0.43
					C239.34,311.21,238.18,313.83,238.18,317.22z"/>
			</g>
			<g id="XMLID_186_">
				<path id="XMLID_189_" class="st3" d="M270.04,310.66c1.26,0.74,1.26,1.93,0,2.67c-1.26,0.74-3.33,0.74-4.6,0
					c-1.28-0.74-1.28-1.93,0-2.67C266.71,309.92,268.77,309.92,270.04,310.66z"/>
				<path id="XMLID_187_" class="st8" d="M252.06,309.21c0,0.75,0.06,1.53,0.17,2.3l1.62-0.93c-0.06-0.46-0.08-0.91-0.08-1.37
					c0-2.77,0.85-4.85,2.33-5.7c0.5-0.28,1.06-0.43,1.66-0.43c0.87,0,1.82,0.3,2.82,0.87c3.07,1.79,5.74,5.74,6.94,9.93
					c0.58,0.03,1.17-0.03,1.7-0.2c-1.31-4.7-4.31-9.19-7.79-11.2c-2.24-1.29-4.44-1.45-6.19-0.43
					C253.22,303.2,252.06,305.82,252.06,309.21z"/>
			</g>
			<g id="XMLID_182_">
				<path id="XMLID_185_" class="st3" d="M283.91,302.65c1.26,0.74,1.26,1.93,0,2.67c-1.26,0.74-3.33,0.74-4.6,0
					c-1.28-0.74-1.28-1.93,0-2.67C280.58,301.91,282.64,301.91,283.91,302.65z"/>
				<path id="XMLID_183_" class="st8" d="M265.93,301.2c0,0.75,0.06,1.53,0.17,2.3l1.62-0.93c-0.06-0.46-0.08-0.91-0.08-1.37
					c0-2.77,0.85-4.85,2.33-5.7c0.5-0.28,1.06-0.43,1.66-0.43c0.87,0,1.82,0.3,2.82,0.87c3.07,1.79,5.74,5.74,6.94,9.93
					c0.58,0.03,1.17-0.03,1.7-0.2c-1.31-4.7-4.31-9.19-7.79-11.2c-2.24-1.29-4.44-1.45-6.19-0.43
					C267.09,295.19,265.93,297.81,265.93,301.2z"/>
			</g>
			<g id="XMLID_178_">
				<path id="XMLID_181_" class="st3" d="M297.78,294.64c1.26,0.74,1.27,1.93,0,2.67c-1.26,0.74-3.33,0.74-4.6,0
					c-1.28-0.74-1.28-1.93,0-2.67C294.46,293.9,296.52,293.9,297.78,294.64z"/>
				<path id="XMLID_179_" class="st8" d="M279.81,293.19c0,0.75,0.06,1.53,0.17,2.3l1.62-0.93c-0.06-0.46-0.08-0.91-0.08-1.37
					c0-2.77,0.85-4.85,2.33-5.7c0.5-0.28,1.06-0.43,1.66-0.43c0.87,0,1.82,0.3,2.82,0.87c3.07,1.79,5.74,5.74,6.94,9.93
					c0.58,0.03,1.17-0.03,1.7-0.2c-1.31-4.7-4.31-9.19-7.79-11.2c-2.24-1.29-4.44-1.45-6.19-0.43
					C280.97,287.18,279.81,289.8,279.81,293.19z"/>
			</g>
			<g id="XMLID_174_">
				<path id="XMLID_177_" class="st3" d="M311.66,286.63c1.26,0.74,1.26,1.93,0,2.67c-1.26,0.74-3.33,0.74-4.6,0
					c-1.28-0.74-1.28-1.93,0-2.67C308.33,285.89,310.39,285.89,311.66,286.63z"/>
				<path id="XMLID_175_" class="st8" d="M293.68,285.18c0,0.75,0.06,1.53,0.17,2.3l1.62-0.93c-0.06-0.46-0.08-0.91-0.08-1.37
					c0-2.77,0.85-4.85,2.33-5.7c0.5-0.28,1.06-0.43,1.66-0.43c0.87,0,1.82,0.3,2.82,0.87c3.07,1.79,5.74,5.74,6.94,9.93
					c0.58,0.03,1.17-0.03,1.7-0.2c-1.31-4.7-4.31-9.19-7.79-11.2c-2.24-1.29-4.44-1.45-6.19-0.43
					C294.84,279.17,293.68,281.79,293.68,285.18z"/>
			</g>
			<g id="XMLID_170_">
				<path id="XMLID_173_" class="st3" d="M325.53,278.62c1.26,0.74,1.26,1.93,0,2.67c-1.26,0.74-3.33,0.74-4.6,0
					c-1.28-0.74-1.28-1.93,0-2.67C322.21,277.88,324.27,277.88,325.53,278.62z"/>
				<path id="XMLID_171_" class="st8" d="M307.55,277.17c0,0.75,0.06,1.53,0.17,2.3l1.62-0.93c-0.06-0.46-0.08-0.91-0.08-1.37
					c0-2.77,0.85-4.85,2.33-5.7c0.5-0.28,1.06-0.43,1.66-0.43c0.87,0,1.82,0.3,2.82,0.87c3.07,1.79,5.74,5.74,6.94,9.93
					c0.58,0.03,1.17-0.03,1.7-0.2c-1.31-4.7-4.31-9.19-7.79-11.2c-2.24-1.29-4.44-1.45-6.19-0.43
					C308.71,271.16,307.55,273.78,307.55,277.17z"/>
			</g>
		</g>
		<g id="XMLID_155_">
			<line id="XMLID_168_" class="st9" x1="221.41" y1="349.33" x2="297.78" y2="393.43"/>
			<line id="XMLID_167_" class="st9" x1="230.66" y1="343.99" x2="307.03" y2="388.09"/>
			<line id="XMLID_166_" class="st9" x1="239.91" y1="338.65" x2="316.28" y2="382.75"/>
			<line id="XMLID_165_" class="st9" x1="249.16" y1="333.31" x2="325.53" y2="377.41"/>
			<line id="XMLID_164_" class="st9" x1="258.41" y1="327.97" x2="334.78" y2="372.07"/>
			<line id="XMLID_163_" class="st9" x1="267.66" y1="322.63" x2="344.03" y2="366.73"/>
			<line id="XMLID_162_" class="st9" x1="276.91" y1="317.29" x2="353.28" y2="361.38"/>
			<line id="XMLID_161_" class="st9" x1="286.16" y1="311.95" x2="362.53" y2="356.04"/>
			<line id="XMLID_160_" class="st9" x1="295.41" y1="306.61" x2="371.78" y2="350.7"/>
			<line id="XMLID_159_" class="st9" x1="304.66" y1="301.27" x2="381.03" y2="345.36"/>
			<line id="XMLID_158_" class="st9" x1="313.91" y1="295.93" x2="390.28" y2="340.02"/>
			<line id="XMLID_157_" class="st9" x1="323.16" y1="290.59" x2="399.53" y2="334.68"/>
			<line id="XMLID_156_" class="st9" x1="332.41" y1="285.25" x2="408.78" y2="329.34"/>
		</g>
		<line id="XMLID_153_" class="st10" x1="207.61" y1="352.05" x2="288.39" y2="398.77"/>
		<g id="XMLID_114_" class="st11">
			<g id="XMLID_145_">
				<path id="XMLID_149_" class="st12" d="M249.86,343.74c1.16-0.6,2.88-2.29,3.91-4.03c0.66-0.28,1.28-0.47,1.72-0.41
					c2.24,0.31,0.35,1.17,0.11,2.03c-0.08,0.29,0.13,0.53,0.43,0.48c1.56-0.25,5.32-1.18,4.3,1.36c-0.07,0.16,0.02,0.41,0.2,0.45
					c0.48,0.11,2.61,0.45,2.37,0.98c-0.09,0.21,0.09,0.48,0.32,0.47c1.65-0.08,3.3,0,4.94,0.09c0.27,0.01,2.14,0.13,2.25,0.26
					c0.49,0.6-0.31,1.86-0.54,2.27c-0.12,0.22-0.08,0.44,0.16,0.55c0.84,0.39,1.49,0.89,0.93,1.79c-0.11,0.18-0.09,0.49,0.15,0.56
					c2.12,0.59,5.91-1.16,6.5,1.37c0.37,1.55,0.16,1.91,2.06,1.75c0.34-0.03,0.6-0.69,0.15-0.7c-2.04-0.04-0.54-2.33-1.69-3.12
					c-1.3-0.89-3.95,0.72-5.22-0.08c-0.9-0.57,0.21-0.88-0.52-1.79c-0.19-0.24-0.72-0.18-0.85-0.36c-0.2-0.28-0.31-0.33-0.36-0.32
					c0.03-0.07,0.08-0.24,0.12-0.57c0.05-0.41,0.25-0.38,0.31-0.63c0.5-2.36-3.29-1.79-4.82-1.91c-0.56-0.05-2.49,0.15-2.78-0.02
					c-0.08-0.05,0.02-0.57-0.13-0.66c-0.33-0.2-2.21-0.83-2.24-0.92c-0.08-0.19,0.49-0.87,0.24-1.37c-0.61-1.2-3.24-0.56-4.21-0.52
					c-0.44,0.02-0.65,0.04-0.73,0.05c0.13-0.03,0.61-0.18,0.65-0.66c0.03-0.31,0.2-0.49,0.08-0.9c-0.22-0.75-0.77-0.77-1.41-0.83
					c-0.64-0.06-1.32,0.11-2,0.37c0.32-0.76,0.47-1.5,0.31-2.13c-0.56-2.32-3.16-0.63-4.52-0.09c-0.31,0.12-0.42,0.78,0.03,0.65
					c0.8-0.24,2.23-1.01,2.97-0.87c1.24,0.23,0.3,2.07-0.4,3.2c-0.54,0.28-1.05,0.56-1.51,0.77c-1.11,0.5-2.42,0.93-3.12,2
					C246.87,344,248.38,344.52,249.86,343.74z M250.68,341.3c0.3-0.14,0.71-0.36,1.16-0.61c-0.52,0.75-1.09,1.7-1.96,2.09
					c-0.18,0.08-1.65,0.59-1.18-0.04C249.25,342,249.88,341.67,250.68,341.3z"/>
				<path id="XMLID_146_" class="st12" d="M282.77,362.18c-0.01,0.15,0.1,0.28,0.23,0.32c1.82,0.57,3.49-1.55,4.12-3.66
					c0.66-0.18,2.08-0.29,2.33,0.75c0,0.01-0.37,0.93-0.39,1.09c-0.03,0.21,0.16,0.33,0.34,0.36c0.99,0.18,4.12-1.17,3.62,0.56
					c-0.04,0.14-0.01,0.3,0.12,0.38c0.82,0.56,2.6-0.39,2.86,0.86c0.11,0.56-1.11,1.14-0.44,1.97c0.51,0.64,1.42,0.2,2.01,0.01
					c0.37-0.12,0.72-0.52,1.12-0.39c0.55,0.19-0.09,0.41,0.19,0.6c0.11,0.07,0.25,0.46,0.46,0.59c0.28,0.17,0.61,0.01,0.92,0.02
					c0.23,0,0.42-0.35,0.64-0.36c0.34-0.02,0.98,0.25,1.24,0.34c0.17,0.06,1.75,0.8,1.58,0.49c0.26,0.46-0.8,1.3-0.26,2.03
					c0.73,0.98,3.2-0.06,3.93-0.11c0.35-0.03,0.65-0.78,0.19-0.77c0.04,0-1.8,0.25-1.84,0.23c-1.6-0.68-1.17-1.16-0.87-1.96
					c0.09-0.23-0.01-0.5-0.3-0.47c-1.06,0.09-1.8-0.99-2.62-0.97c-0.28,0.01-1.15,0.49-1.3,0.48c-1.26-0.08-0.65-0.39-0.68-1.25
					c-0.01-0.22-0.25-0.35-0.45-0.27c-0.72,0.26-2.58,1.75-2.62,0c-0.01-0.23,0.78-0.72,0.84-1.08c0.12-0.81-0.26-1.02-1-1.19
					c-0.53-0.12-1.06,0.14-1.56,0.22c-2,0.32-0.31,0.05-0.99-0.52c-0.67-0.56-0.76-0.63-1.86-0.58c-0.32,0.01-0.99,0.2-1.26,0.13
					c-1.09-0.29-0.36,0.01-0.41-0.71c-0.03-0.49,0.4-0.85,0.23-1.39c-0.3-0.92-0.88-0.89-1.78-0.72c-0.48,0.09-1.08,0.3-1.71,0.58
					c0.18-1.45-0.25-2.64-1.64-2.6c-0.37,0.01-0.72,0.68-0.23,0.75c1.02,0.13,0.99,1.34,0.71,2.45
					C284.52,359.35,282.89,360.78,282.77,362.18z M284.52,360.86c0.1-0.28,0.67-0.81,1.28-1.26c-0.09,0.21-0.18,0.39-0.24,0.5
					C285.38,360.39,284.16,361.91,284.52,360.86z"/>
			</g>
			<g id="XMLID_138_">
				<path id="XMLID_142_" class="st12" d="M260.3,371.11c1.16-0.6,2.88-2.29,3.91-4.03c0.66-0.28,1.28-0.47,1.72-0.41
					c2.24,0.31,0.35,1.17,0.11,2.03c-0.08,0.29,0.13,0.53,0.43,0.48c1.56-0.25,5.32-1.18,4.3,1.36c-0.07,0.16,0.02,0.41,0.2,0.45
					c0.48,0.11,2.61,0.45,2.37,0.98c-0.09,0.21,0.09,0.48,0.32,0.47c1.65-0.08,3.3,0,4.94,0.09c0.27,0.01,2.14,0.13,2.25,0.26
					c0.49,0.6-0.31,1.86-0.54,2.27c-0.12,0.22-0.08,0.44,0.16,0.55c0.84,0.39,1.49,0.89,0.93,1.79c-0.11,0.18-0.09,0.49,0.15,0.56
					c2.12,0.59,5.91-1.16,6.5,1.37c0.37,1.55,0.16,1.91,2.06,1.75c0.34-0.03,0.6-0.69,0.15-0.7c-2.04-0.04-0.54-2.33-1.69-3.12
					c-1.3-0.89-3.95,0.72-5.22-0.08c-0.9-0.57,0.21-0.88-0.52-1.79c-0.19-0.24-0.72-0.18-0.85-0.36c-0.2-0.28-0.31-0.33-0.36-0.32
					c0.03-0.07,0.08-0.24,0.12-0.57c0.05-0.41,0.25-0.38,0.31-0.63c0.5-2.36-3.29-1.79-4.82-1.91c-0.56-0.05-2.49,0.15-2.78-0.02
					c-0.08-0.05,0.02-0.57-0.13-0.66c-0.33-0.2-2.21-0.83-2.24-0.92c-0.08-0.19,0.49-0.87,0.24-1.37c-0.61-1.2-3.24-0.56-4.21-0.52
					c-0.44,0.02-0.65,0.04-0.73,0.05c0.13-0.03,0.61-0.18,0.65-0.66c0.03-0.31,0.2-0.49,0.08-0.9c-0.22-0.75-0.77-0.77-1.41-0.83
					c-0.64-0.06-1.32,0.11-2,0.37c0.32-0.76,0.47-1.5,0.31-2.13c-0.56-2.32-3.16-0.63-4.52-0.09c-0.31,0.12-0.42,0.78,0.03,0.65
					c0.8-0.24,2.23-1.01,2.97-0.87c1.24,0.23,0.3,2.07-0.4,3.2c-0.54,0.28-1.05,0.56-1.51,0.77c-1.11,0.5-2.42,0.93-3.12,2
					C257.32,371.37,258.82,371.88,260.3,371.11z M261.13,368.67c0.3-0.14,0.71-0.36,1.16-0.61c-0.52,0.75-1.09,1.7-1.96,2.09
					c-0.18,0.08-1.65,0.59-1.18-0.04C259.69,369.37,260.33,369.04,261.13,368.67z"/>
				<path id="XMLID_139_" class="st12" d="M231.54,354.05c-0.01,0.15,0.1,0.28,0.23,0.32c1.82,0.57,3.49-1.55,4.12-3.66
					c0.66-0.17,2.08-0.29,2.33,0.75c0,0.01-0.37,0.93-0.39,1.09c-0.03,0.21,0.16,0.33,0.34,0.36c0.99,0.18,4.12-1.17,3.62,0.56
					c-0.04,0.14-0.01,0.3,0.12,0.38c0.82,0.56,2.6-0.39,2.86,0.86c0.11,0.56-1.11,1.14-0.44,1.97c0.51,0.64,1.42,0.2,2.01,0.01
					c0.37-0.12,0.72-0.52,1.12-0.39c0.55,0.19-0.09,0.41,0.19,0.6c0.11,0.07,0.25,0.46,0.46,0.59c0.28,0.17,0.61,0.01,0.92,0.02
					c0.23,0,0.42-0.35,0.64-0.36c0.34-0.02,0.98,0.25,1.24,0.34c0.17,0.06,1.75,0.8,1.58,0.49c0.26,0.46-0.8,1.3-0.26,2.03
					c0.73,0.98,3.2-0.06,3.93-0.11c0.35-0.03,0.65-0.78,0.19-0.77c0.04,0-1.8,0.25-1.84,0.23c-1.6-0.68-1.17-1.16-0.87-1.96
					c0.09-0.23-0.01-0.5-0.3-0.47c-1.06,0.09-1.8-0.99-2.62-0.97c-0.28,0.01-1.15,0.49-1.3,0.48c-1.26-0.08-0.65-0.39-0.68-1.25
					c-0.01-0.22-0.25-0.35-0.45-0.27c-0.72,0.26-2.58,1.75-2.62,0c-0.01-0.23,0.78-0.72,0.84-1.08c0.12-0.81-0.26-1.02-1-1.19
					c-0.53-0.12-1.06,0.14-1.56,0.22c-2,0.32-0.31,0.05-0.99-0.52c-0.67-0.56-0.76-0.63-1.86-0.58c-0.32,0.01-0.99,0.2-1.26,0.13
					c-1.09-0.29-0.36,0.01-0.41-0.71c-0.03-0.49,0.4-0.85,0.23-1.39c-0.3-0.92-0.88-0.89-1.78-0.72c-0.48,0.09-1.08,0.3-1.71,0.58
					c0.18-1.45-0.25-2.64-1.64-2.6c-0.37,0.01-0.72,0.68-0.23,0.75c1.02,0.13,0.99,1.34,0.71,2.45
					C233.29,351.22,231.67,352.65,231.54,354.05z M233.29,352.73c0.1-0.28,0.67-0.81,1.28-1.26c-0.09,0.21-0.18,0.39-0.24,0.5
					C234.16,352.26,232.94,353.78,233.29,352.73z"/>
			</g>
			<g id="XMLID_131_">
				<path id="XMLID_135_" class="st12" d="M306.27,312.56c1.16-0.6,2.88-2.29,3.91-4.03c0.66-0.28,1.28-0.47,1.72-0.41
					c2.24,0.31,0.35,1.17,0.11,2.03c-0.08,0.29,0.13,0.53,0.43,0.48c1.56-0.25,5.32-1.18,4.3,1.36c-0.07,0.16,0.02,0.41,0.2,0.45
					c0.48,0.11,2.61,0.45,2.37,0.98c-0.09,0.21,0.09,0.48,0.32,0.47c1.65-0.08,3.3,0,4.94,0.09c0.27,0.01,2.14,0.13,2.25,0.26
					c0.49,0.6-0.31,1.86-0.54,2.27c-0.12,0.22-0.08,0.44,0.16,0.55c0.84,0.39,1.49,0.89,0.93,1.79c-0.11,0.18-0.09,0.49,0.15,0.56
					c2.12,0.59,5.91-1.16,6.5,1.37c0.37,1.55,0.16,1.91,2.06,1.75c0.34-0.03,0.6-0.69,0.15-0.7c-2.04-0.04-0.54-2.33-1.69-3.12
					c-1.3-0.89-3.95,0.72-5.22-0.08c-0.9-0.57,0.21-0.88-0.52-1.79c-0.19-0.24-0.72-0.18-0.85-0.36c-0.2-0.28-0.31-0.33-0.36-0.32
					c0.03-0.07,0.08-0.24,0.12-0.57c0.05-0.41,0.25-0.38,0.31-0.63c0.5-2.36-3.29-1.79-4.82-1.91c-0.56-0.05-2.49,0.15-2.78-0.02
					c-0.08-0.05,0.02-0.57-0.13-0.66c-0.33-0.2-2.21-0.83-2.24-0.92c-0.08-0.19,0.49-0.87,0.24-1.37c-0.61-1.2-3.24-0.56-4.21-0.52
					c-0.44,0.02-0.65,0.04-0.73,0.05c0.13-0.03,0.61-0.18,0.65-0.66c0.03-0.31,0.2-0.49,0.08-0.9c-0.22-0.75-0.77-0.77-1.41-0.83
					c-0.64-0.06-1.32,0.11-2,0.37c0.32-0.76,0.47-1.5,0.31-2.13c-0.56-2.32-3.16-0.63-4.52-0.09c-0.31,0.12-0.42,0.78,0.03,0.65
					c0.8-0.24,2.23-1.01,2.97-0.87c1.24,0.23,0.3,2.07-0.4,3.2c-0.54,0.28-1.05,0.56-1.51,0.77c-1.11,0.5-2.42,0.93-3.12,2
					C303.29,312.82,304.79,313.33,306.27,312.56z M307.1,310.12c0.3-0.14,0.71-0.36,1.16-0.61c-0.52,0.75-1.09,1.7-1.96,2.09
					c-0.18,0.08-1.65,0.59-1.18-0.04C305.66,310.82,306.3,310.49,307.1,310.12z"/>
				<path id="XMLID_132_" class="st12" d="M339.19,331c-0.01,0.15,0.1,0.28,0.23,0.32c1.82,0.57,3.49-1.55,4.12-3.66
					c0.66-0.17,2.08-0.29,2.33,0.75c0,0.01-0.37,0.93-0.39,1.09c-0.03,0.21,0.16,0.33,0.34,0.36c0.99,0.18,4.12-1.17,3.62,0.56
					c-0.04,0.14-0.01,0.3,0.12,0.38c0.82,0.56,2.6-0.39,2.86,0.86c0.11,0.56-1.11,1.14-0.44,1.97c0.51,0.64,1.42,0.2,2.01,0.01
					c0.37-0.12,0.72-0.52,1.12-0.39c0.55,0.19-0.09,0.41,0.19,0.6c0.11,0.07,0.25,0.46,0.46,0.59c0.28,0.17,0.61,0.01,0.92,0.02
					c0.23,0,0.42-0.35,0.64-0.36c0.34-0.02,0.98,0.25,1.24,0.34c0.17,0.06,1.75,0.8,1.58,0.49c0.26,0.46-0.8,1.3-0.26,2.03
					c0.73,0.98,3.2-0.06,3.93-0.11c0.35-0.03,0.65-0.78,0.19-0.77c0.04,0-1.8,0.25-1.84,0.23c-1.6-0.68-1.17-1.16-0.87-1.96
					c0.09-0.23-0.01-0.5-0.3-0.47c-1.06,0.09-1.8-0.99-2.62-0.97c-0.28,0.01-1.15,0.49-1.3,0.48c-1.26-0.08-0.65-0.39-0.68-1.25
					c-0.01-0.22-0.25-0.35-0.45-0.27c-0.72,0.26-2.58,1.75-2.62,0c-0.01-0.23,0.78-0.72,0.84-1.08c0.12-0.81-0.26-1.02-1-1.19
					c-0.53-0.12-1.06,0.14-1.56,0.22c-2,0.32-0.31,0.05-0.99-0.52c-0.67-0.56-0.76-0.63-1.86-0.58c-0.32,0.01-0.99,0.2-1.26,0.13
					c-1.09-0.29-0.36,0.01-0.41-0.71c-0.03-0.49,0.4-0.85,0.23-1.39c-0.3-0.92-0.88-0.89-1.78-0.72c-0.48,0.09-1.08,0.3-1.71,0.58
					c0.18-1.45-0.25-2.64-1.64-2.6c-0.37,0.01-0.72,0.68-0.23,0.75c1.02,0.13,0.99,1.34,0.71,2.45
					C340.93,328.16,339.31,329.6,339.19,331z M340.93,329.68c0.1-0.28,0.67-0.81,1.28-1.26c-0.09,0.21-0.18,0.39-0.24,0.5
					C341.8,329.21,340.58,330.73,340.93,329.68z"/>
			</g>
			<g id="XMLID_124_">
				<path id="XMLID_128_" class="st12" d="M316.72,339.93c1.16-0.6,2.88-2.29,3.91-4.03c0.66-0.28,1.28-0.47,1.72-0.41
					c2.24,0.31,0.35,1.17,0.11,2.03c-0.08,0.29,0.13,0.53,0.43,0.48c1.56-0.25,5.32-1.18,4.3,1.36c-0.07,0.16,0.02,0.41,0.2,0.45
					c0.48,0.11,2.61,0.45,2.37,0.98c-0.09,0.21,0.09,0.48,0.32,0.47c1.65-0.08,3.3,0,4.94,0.09c0.27,0.01,2.14,0.13,2.25,0.26
					c0.49,0.6-0.31,1.86-0.54,2.27c-0.12,0.22-0.08,0.44,0.16,0.55c0.84,0.39,1.49,0.89,0.93,1.79c-0.11,0.18-0.09,0.49,0.15,0.56
					c2.12,0.59,5.91-1.16,6.5,1.37c0.37,1.55,0.16,1.91,2.06,1.75c0.34-0.03,0.6-0.69,0.15-0.7c-2.04-0.04-0.54-2.33-1.69-3.12
					c-1.3-0.89-3.95,0.72-5.22-0.08c-0.9-0.57,0.21-0.88-0.52-1.79c-0.19-0.24-0.72-0.18-0.85-0.36c-0.2-0.28-0.31-0.33-0.36-0.32
					c0.03-0.08,0.08-0.24,0.12-0.57c0.05-0.41,0.25-0.38,0.31-0.63c0.5-2.36-3.29-1.79-4.82-1.91c-0.56-0.05-2.49,0.15-2.78-0.02
					c-0.08-0.05,0.02-0.57-0.13-0.66c-0.33-0.2-2.21-0.83-2.24-0.92c-0.08-0.19,0.49-0.87,0.24-1.37c-0.61-1.2-3.24-0.56-4.21-0.52
					c-0.44,0.02-0.65,0.04-0.73,0.05c0.13-0.03,0.61-0.18,0.65-0.66c0.03-0.31,0.2-0.49,0.08-0.9c-0.22-0.75-0.77-0.77-1.41-0.83
					c-0.64-0.06-1.32,0.11-2.01,0.37c0.32-0.76,0.47-1.5,0.31-2.13c-0.56-2.32-3.16-0.63-4.52-0.09c-0.31,0.12-0.42,0.78,0.03,0.65
					c0.8-0.24,2.23-1.01,2.97-0.87c1.24,0.23,0.3,2.07-0.4,3.2c-0.54,0.28-1.05,0.56-1.51,0.77c-1.11,0.5-2.42,0.93-3.12,2
					C313.73,340.19,315.24,340.7,316.72,339.93z M317.55,337.48c0.3-0.14,0.71-0.36,1.16-0.61c-0.52,0.75-1.09,1.7-1.96,2.09
					c-0.18,0.08-1.65,0.59-1.18-0.04C316.11,338.19,316.74,337.85,317.55,337.48z"/>
				<path id="XMLID_125_" class="st12" d="M287.96,322.87c-0.01,0.15,0.1,0.28,0.23,0.32c1.82,0.57,3.49-1.55,4.12-3.66
					c0.66-0.18,2.08-0.29,2.33,0.75c0,0.01-0.37,0.93-0.39,1.09c-0.03,0.21,0.16,0.33,0.34,0.36c0.99,0.18,4.12-1.17,3.62,0.56
					c-0.04,0.14-0.01,0.3,0.12,0.38c0.82,0.56,2.6-0.39,2.86,0.86c0.11,0.56-1.11,1.14-0.44,1.97c0.51,0.64,1.42,0.2,2.01,0.01
					c0.37-0.12,0.72-0.52,1.12-0.39c0.55,0.19-0.09,0.41,0.19,0.6c0.11,0.07,0.25,0.46,0.46,0.59c0.28,0.17,0.61,0.01,0.92,0.02
					c0.23,0,0.42-0.35,0.64-0.36c0.34-0.02,0.98,0.25,1.24,0.34c0.17,0.06,1.75,0.8,1.58,0.49c0.26,0.46-0.8,1.3-0.26,2.03
					c0.73,0.98,3.2-0.06,3.93-0.11c0.35-0.03,0.65-0.78,0.19-0.77c0.04,0-1.8,0.25-1.84,0.23c-1.6-0.68-1.17-1.16-0.87-1.96
					c0.09-0.23-0.01-0.5-0.3-0.47c-1.06,0.09-1.8-0.99-2.62-0.97c-0.28,0.01-1.15,0.49-1.3,0.48c-1.26-0.08-0.65-0.39-0.68-1.25
					c-0.01-0.22-0.25-0.35-0.45-0.27c-0.72,0.26-2.58,1.75-2.62,0c-0.01-0.23,0.78-0.72,0.84-1.08c0.12-0.81-0.26-1.02-1-1.19
					c-0.53-0.12-1.06,0.14-1.56,0.22c-2,0.32-0.31,0.05-0.99-0.52c-0.67-0.56-0.76-0.63-1.86-0.58c-0.32,0.01-0.99,0.2-1.26,0.13
					c-1.09-0.29-0.36,0.01-0.41-0.71c-0.03-0.49,0.4-0.85,0.23-1.39c-0.3-0.92-0.88-0.89-1.78-0.72c-0.48,0.09-1.08,0.3-1.71,0.58
					c0.18-1.45-0.25-2.64-1.64-2.6c-0.37,0.01-0.72,0.68-0.23,0.75c1.02,0.13,0.99,1.34,0.71,2.45
					C289.7,320.03,288.08,321.47,287.96,322.87z M289.7,321.55c0.1-0.28,0.67-0.81,1.28-1.26c-0.09,0.21-0.18,0.39-0.24,0.5
					C290.57,321.08,289.35,322.6,289.7,321.55z"/>
			</g>
			<g id="XMLID_115_">
				<path id="XMLID_121_" class="st12" d="M310.92,358.76c1.16-0.6,2.88-2.29,3.91-4.03c0.66-0.28,1.28-0.47,1.72-0.41
					c2.24,0.31,0.35,1.17,0.11,2.03c-0.08,0.29,0.13,0.53,0.43,0.48c1.56-0.25,5.32-1.18,4.3,1.36c-0.07,0.16,0.02,0.41,0.2,0.45
					c0.48,0.11,2.61,0.45,2.37,0.98c-0.09,0.21,0.09,0.48,0.32,0.47c1.65-0.08,3.3,0,4.94,0.09c0.27,0.01,2.14,0.13,2.25,0.26
					c0.49,0.6-0.31,1.86-0.54,2.27c-0.12,0.22-0.08,0.44,0.16,0.55c0.84,0.39,1.49,0.89,0.93,1.79c-0.11,0.18-0.09,0.49,0.15,0.56
					c2.12,0.59,5.91-1.16,6.5,1.37c0.37,1.55,0.16,1.91,2.06,1.75c0.34-0.03,0.6-0.69,0.15-0.7c-2.04-0.04-0.54-2.33-1.69-3.12
					c-1.3-0.89-3.95,0.72-5.22-0.08c-0.9-0.57,0.21-0.88-0.52-1.79c-0.19-0.24-0.72-0.18-0.85-0.36c-0.2-0.28-0.31-0.33-0.36-0.32
					c0.03-0.07,0.08-0.24,0.12-0.57c0.05-0.41,0.25-0.38,0.31-0.63c0.5-2.36-3.29-1.79-4.82-1.91c-0.56-0.05-2.49,0.15-2.78-0.02
					c-0.08-0.05,0.02-0.57-0.13-0.66c-0.33-0.2-2.2-0.83-2.24-0.92c-0.08-0.19,0.49-0.87,0.24-1.37c-0.61-1.2-3.24-0.56-4.21-0.52
					c-0.44,0.02-0.65,0.04-0.73,0.05c0.13-0.03,0.61-0.18,0.65-0.66c0.03-0.31,0.2-0.49,0.08-0.9c-0.22-0.75-0.77-0.77-1.41-0.83
					c-0.64-0.06-1.32,0.11-2,0.37c0.32-0.76,0.47-1.5,0.31-2.13c-0.56-2.32-3.16-0.63-4.52-0.09c-0.31,0.12-0.42,0.78,0.03,0.65
					c0.8-0.24,2.23-1.01,2.97-0.87c1.24,0.23,0.3,2.07-0.4,3.2c-0.54,0.28-1.05,0.56-1.51,0.77c-1.11,0.5-2.42,0.93-3.12,2
					C307.93,359.02,309.44,359.53,310.92,358.76z M311.75,356.31c0.3-0.14,0.71-0.36,1.16-0.61c-0.52,0.75-1.09,1.7-1.96,2.09
					c-0.18,0.08-1.65,0.59-1.18-0.04C310.31,357.02,310.94,356.68,311.75,356.31z"/>
				<path id="XMLID_118_" class="st12" d="M287.04,343.42c-0.01,0.15,0.1,0.28,0.23,0.32c1.82,0.57,3.49-1.55,4.12-3.66
					c0.66-0.17,2.08-0.29,2.33,0.75c0,0.01-0.37,0.93-0.39,1.09c-0.03,0.21,0.16,0.33,0.34,0.36c0.99,0.18,4.12-1.17,3.62,0.56
					c-0.04,0.14-0.01,0.3,0.12,0.38c0.82,0.56,2.6-0.39,2.86,0.86c0.11,0.56-1.11,1.14-0.44,1.97c0.51,0.64,1.42,0.2,2.01,0.01
					c0.37-0.12,0.72-0.52,1.12-0.39c0.55,0.19-0.09,0.41,0.19,0.6c0.11,0.07,0.25,0.46,0.46,0.59c0.28,0.17,0.61,0.01,0.92,0.02
					c0.23,0,0.42-0.35,0.64-0.36c0.34-0.02,0.98,0.25,1.24,0.34c0.17,0.06,1.75,0.8,1.58,0.49c0.26,0.46-0.8,1.3-0.26,2.03
					c0.73,0.98,3.2-0.06,3.93-0.11c0.35-0.03,0.65-0.78,0.19-0.77c0.04,0-1.8,0.25-1.84,0.23c-1.6-0.68-1.17-1.16-0.87-1.96
					c0.09-0.23-0.01-0.5-0.3-0.47c-1.06,0.09-1.8-0.99-2.62-0.97c-0.28,0.01-1.15,0.49-1.3,0.48c-1.26-0.08-0.65-0.39-0.68-1.25
					c-0.01-0.22-0.25-0.35-0.45-0.27c-0.72,0.26-2.58,1.75-2.62,0c-0.01-0.23,0.78-0.72,0.84-1.08c0.12-0.81-0.26-1.02-1-1.19
					c-0.53-0.12-1.06,0.14-1.56,0.22c-2,0.32-0.31,0.05-0.99-0.52c-0.67-0.56-0.76-0.63-1.86-0.58c-0.32,0.01-0.99,0.2-1.26,0.13
					c-1.09-0.29-0.36,0.01-0.41-0.71c-0.03-0.49,0.4-0.85,0.23-1.39c-0.3-0.92-0.88-0.89-1.78-0.72c-0.48,0.09-1.08,0.3-1.71,0.58
					c0.18-1.45-0.25-2.64-1.64-2.6c-0.37,0.01-0.72,0.68-0.23,0.75c1.02,0.13,0.99,1.34,0.71,2.45
					C288.78,340.59,287.16,342.02,287.04,343.42z M288.78,342.1c0.1-0.28,0.67-0.81,1.28-1.26c-0.09,0.21-0.18,0.39-0.24,0.5
					C289.65,341.63,288.43,343.15,288.78,342.1z"/>
				<path id="XMLID_116_" class="st12" d="M269.31,325.78c0.22,0.86-0.04,1.42-0.14,2.23c-0.03,0.21,0.16,0.33,0.34,0.36
					c0.99,0.18,4.12-1.17,3.62,0.56c-0.04,0.14-0.01,0.3,0.12,0.38c0.82,0.56,2.6-0.39,2.86,0.86c0.11,0.56-1.11,1.14-0.44,1.97
					c0.51,0.64,1.42,0.2,2.01,0.01c0.37-0.12,0.72-0.52,1.12-0.39c0.55,0.19-0.09,0.41,0.19,0.6c0.11,0.07,0.25,0.46,0.46,0.59
					c0.28,0.17,0.61,0.01,0.92,0.02c0.23,0,0.42-0.35,0.64-0.36c0.34-0.02,0.98,0.25,1.24,0.34c0.17,0.06,1.75,0.8,1.58,0.49
					c0.26,0.46-0.8,1.3-0.26,2.03c0.73,0.98,3.2-0.06,3.93-0.11c0.35-0.03,0.65-0.78,0.19-0.77c0.04,0-1.8,0.25-1.84,0.23
					c-1.6-0.68-1.17-1.16-0.87-1.96c0.09-0.23-0.01-0.5-0.3-0.47c-1.06,0.09-1.8-0.99-2.62-0.97c-0.28,0.01-1.15,0.49-1.3,0.48
					c-1.26-0.08-0.65-0.39-0.68-1.25c-0.01-0.22-0.25-0.35-0.45-0.27c-0.72,0.26-2.58,1.75-2.62,0c-0.01-0.23,0.78-0.72,0.84-1.08
					c0.12-0.81-0.26-1.02-1-1.19c-0.53-0.12-1.06,0.14-1.56,0.22c-2,0.32-0.31,0.05-0.99-0.52c-0.67-0.56-0.76-0.63-1.86-0.58
					c-0.32,0.01-0.99,0.2-1.26,0.13c-1.09-0.29-0.36,0.01-0.41-0.71c-0.03-0.49,0.4-0.85,0.23-1.39c-0.21-0.66-1.46-1.46-1.75-0.39
					c-0.04,0.14-0.03,0.28-0.01,0.42C269.21,325.45,269.26,325.62,269.31,325.78z"/>
			</g>
		</g>
		<g id="Character_1_">
			<g id="XMLID_1080_">
				<path id="XMLID_1081_" class="st13" d="M396.41,113.06c-4.66,5.57-12.36,13.09-16.72,18.57c-2.29,2.88-3.59,6.45-3.54,10.12
					c0.04,2.73,0.78,5.01,3.45,3.85c1.93-0.84,3.15-1.84,5.97-4.61c2.53-2.5,14.77-13.97,14.77-13.97s2.29-14.1,6.07-15.24
					c3.78-1.15,7-7.18,7-7.18C407.24,103.98,402.33,106,396.41,113.06z"/>
			</g>
			<g id="XMLID_865_">
				<g id="XMLID_1103_">
					<g id="XMLID_1104_">
						<path id="XMLID_1483_" class="st14" d="M353.81,258.64l-21.87,32.01c-0.64,0.93-2.09,0.52-2.15-0.6l-2.13-38.94L353.81,258.64
							z"/>
						<path id="XMLID_1482_" class="st8" d="M329.79,290.05c0.06,1.13,1.52,1.53,2.15,0.6l4.27-6.25l0,0
							c-2.39,0.54-4.88-0.3-6.45-2.17l-0.43-0.51L329.79,290.05z"/>
						<path id="XMLID_1481_" class="st2" d="M371.6,93.58l-0.96,3.46l-1.18,4.17l-41.8,149.91c1.9,3.93,5.56,6.68,9.61,8.24
							c6.16,2.41,13.24,2.12,16.53-0.72l41.49-148.8l2.22-7.97C395.79,106.94,369.94,98.7,371.6,93.58z"/>
						<path id="XMLID_1128_" class="st6" d="M367.89,106.73l-2.14,7.72c-0.69,2.22,3.68,4.98,9.04,7.01
							c7.12,2.71,16,4.12,16.92,1.18l1.59-5.69l0.53-2.04c-0.93,2.94-9.8,1.53-16.93-1.18c-5.14-1.95-9.38-4.59-9.07-6.75l0.01-0.02
							C367.85,106.88,367.86,106.81,367.89,106.73z"/>
						<path id="XMLID_1125_" class="st2" d="M367.38,108.66c-1.62,5.15,24.33,13.33,25.95,8.18l2.17-7.72
							c-1.62,5.15-27.57-3.03-25.95-8.18L367.38,108.66z"/>
						<path id="XMLID_1124_" class="st6" d="M371.6,93.58l-2.14,7.62c-1.63,5.04,23.34,13.19,25.83,8.63
							c0.05-0.07,0.09-0.18,0.13-0.28l2.1-7.7C395.79,106.94,369.94,98.7,371.6,93.58z"/>
						<path id="XMLID_1116_" class="st3" d="M395.29,109.83l2.22-7.97c-0.78,2.3-6.49,1.87-12.35,0.24l0,0L342.2,260.69
							l-10.26,29.96l21.87-32.01l-0.02-0.01c0,0,0,0,0,0L395.29,109.83z"/>
						<path id="XMLID_1106_" class="st13" d="M380.66,61.22l-9.06,32.36c-0.71,2.19,3.6,4.95,8.91,6.99c7.12,2.73,16.02,4.2,17,1.29
							c0.01-0.01,0.01-0.01,0.02-0.03l8.71-31.13c2.63-7.09-10.23-14.06-18.8-13.53C384.23,57.35,381.65,58.57,380.66,61.22z"/>
					</g>
				</g>
			</g>
			<g id="XMLID_16985_">
				<g id="XMLID_1913_">
					<g id="XMLID_16974_">
						<g id="XMLID_1974_">
							<path id="XMLID_2008_" class="st8" d="M418.63,99.45L418.63,99.45c10.1,0,18.29-8.19,18.29-18.29v-1.01
								c0-8.56-6.94-15.5-15.5-15.5h-5.58c-8.56,0-15.5,6.94-15.5,15.5v1.01C400.34,91.26,408.53,99.45,418.63,99.45z"/>
						</g>
						<path id="XMLID_7_" class="st8" d="M444.34,101.31L444.34,101.31c-4.59,0-8.31-3.72-8.31-8.31V76.49l0,0
							c4.59,0,8.31,3.72,8.31,8.31V101.31z"/>
						<g id="XMLID_16975_">
							<path id="XMLID_2063_" class="st8" d="M399.8,280.38c-2.12,2.32-4.47,4.19-6.98,6.07c-0.38,0.28-0.77,0.58-0.97,1
								c-0.33,0.68-0.84,2.38,2.28,3.47c3.05,1.06,6.85,0.81,9.63-0.92c2.56-1.6,2.68-4.94,5.1-6.84c1.79-1.41,4.03-1.77,5.48-3.61
								c1.01-1.28,0.75-2.99,0.22-5.1c-0.57-2.31-0.84-4.05-1.6-3.88l0.13,1.06c-0.95,1.52-5.89,1.97-8.09,0.92
								C404.99,272.54,401.19,278.86,399.8,280.38z"/>
						</g>
						<g id="XMLID_1968_">
							<path id="XMLID_2061_" class="st14" d="M397.64,282.53c0,0,0-0.01,0-0.02c0.74-0.68,1.47-1.38,2.17-2.14
								c0.89-0.98,2.79-3.95,4.03-5.94c0.75-1.21,1.68-2.74,1.72-4.34c0.05-2.04-0.15-5.67-0.15-5.67l7.31-0.48l0.36,7.67l0,0
								c0.19,1.74-1.25,3.28-3.79,5.48c-2.55,2.19-5.78,7.31-8.08,8.6c-2.3,1.29-3.95,1.24-4.94,0.58
								C395.26,285.59,395.16,285.07,397.64,282.53z"/>
						</g>
						<g id="XMLID_1085_">
							<path id="XMLID_1086_" class="st8" d="M424.16,287.69c-2.12,2.32-4.47,4.19-6.98,6.07c-0.38,0.28-0.77,0.58-0.97,1
								c-0.33,0.68-0.84,2.38,2.28,3.47c3.05,1.06,6.85,0.82,9.63-0.92c2.56-1.6,2.68-4.94,5.1-6.84c1.79-1.41,4.03-1.77,5.48-3.61
								c1.01-1.28,0.75-2.99,0.22-5.1c-0.57-2.31-0.84-4.05-1.6-3.88l0.13,1.06c-0.95,1.52-5.89,1.97-8.09,0.92
								C429.35,279.85,425.54,286.17,424.16,287.69z"/>
						</g>
						<g id="XMLID_1083_">
							<path id="XMLID_1084_" class="st14" d="M421.99,289.84c0,0,0-0.01,0-0.02c0.74-0.68,1.47-1.38,2.17-2.14
								c0.89-0.98,2.79-3.95,4.03-5.94c0.75-1.21,1.6-2.82,1.71-4.42c0.13-1.79,0.04-5.52,0.04-5.52l7.31,0.04l0.18,7.07l0,0
								c0.19,1.74-1.25,3.28-3.79,5.48c-2.55,2.19-5.78,7.31-8.08,8.6c-2.3,1.29-3.95,1.24-4.94,0.58
								C419.61,292.9,419.51,292.38,421.99,289.84z"/>
						</g>
						<g id="XMLID_1964_">
							<path id="XMLID_2055_" class="st15" d="M437.34,153.34c6.37,13.92-0.88,66.71-0.88,66.71c0.19,2.26,2.18,5.77,2.42,12.67
								c0.3,8.86-1.27,41.57-1.27,41.57s-3.84,2.33-8.34,0.17c0,0-7.55-44.41-9.02-56.09c-1.29-10.19-3.75-34.16-3.75-34.16
								l-5.08,34.1c0,0,2.61,5.69,2.74,10.83c0.18,6.9-0.84,38.93-0.84,38.93s-3.09,1.08-8.47,0.29c0,0-7.68-43.34-8.4-51.61
								c-0.43-4.94,3.26-65.51,3.26-65.51L437.34,153.34z"/>
						</g>
						<g id="XMLID_1963_">
							<path id="XMLID_2053_" class="st8" d="M416.49,184.21l-2.07-11.38c0,0-8.76-1.81-12.73-5.55c0,0,4.17,5.18,10.35,6.88
								l2.32,9.96l-2.3,29.75L416.49,184.21z"/>
						</g>
						<g id="XMLID_1961_">
							<path id="XMLID_2051_" class="st16" d="M424.9,104.92L424.9,104.92c5.59,0.77,8.59,2.01,10.4,7.26
								c1.18,3.44,0.86,8.5-0.33,11.93l-4.89,14.29c0,0,4.82,7.51,7.26,14.93c-14.29,7.98-33.34,3.74-37.63-2.09
								c-0.18-1.23,0.98-7.2,0.63-13.54c-0.37-6.75-1.45-14.51-0.39-18.68c1.97-7.75,7.38-12.81,13.47-14.44L424.9,104.92z"/>
						</g>
						<g id="XMLID_1951_">
							<path id="XMLID_2045_" class="st14" d="M406.35,72.05c-1.93,1.14-4.32,6-4.08,16.19c0.2,8.63,3,10.77,4.4,11.38
								s4.11,0.24,6.75-0.2v5.18c0,0-3.64,4.23-3.41,6.6c0.23,2.38,5.26,2.94,8.66,0.62c3.41-2.32,5.59-5.85,5.59-5.85V93.44
								c0,0,1.78,2.38,4.69,0.44c2.91-1.93,3.02-6.71,1.33-8.43c-1.69-1.72-5.34-1.17-6.02,1.2c0,0-4.2,0.15-9.8-2.92
								C408.87,80.66,406.72,75.39,406.35,72.05z"/>
						</g>
						<g id="XMLID_1949_">
							<path id="XMLID_2043_" class="st8" d="M411.9,86.06c-0.03,0.62,0.43,1.15,1.03,1.18c0.6,0.03,1.11-0.45,1.14-1.07
								c0.03-0.62-0.43-1.15-1.03-1.18C412.44,84.96,411.93,85.44,411.9,86.06z"/>
						</g>
						<g id="XMLID_1947_">
							<path id="XMLID_2041_" class="st13" d="M411.61,93.38l-2.52,0.8c0.21,0.72,0.94,1.13,1.64,0.9
								C411.43,94.87,411.82,94.1,411.61,93.38z"/>
						</g>
						<g id="XMLID_1941_">
							<path id="XMLID_2039_" class="st8" d="M403,82.73l2.2-1.52c-0.4-0.63-1.22-0.79-1.82-0.37C402.77,81.25,402.6,82.1,403,82.73
								z"/>
						</g>
						<g id="XMLID_1923_">
							<path id="XMLID_2037_" class="st8" d="M403.51,85.28c-0.03,0.62,0.43,1.15,1.03,1.18c0.6,0.03,1.11-0.45,1.14-1.07
								c0.03-0.62-0.43-1.15-1.03-1.18C404.05,84.18,403.54,84.66,403.51,85.28z"/>
						</g>
						<g id="XMLID_1921_">
							<polygon id="XMLID_2035_" class="st13" points="408.63,84.66 408.46,91.19 405.02,90.13 							"/>
						</g>
						<g id="XMLID_1919_">
							<path id="XMLID_2031_" class="st13" d="M413.41,99.42c2.78-0.36,8.49-2,9.38-4.26c0,0-0.3,1.42-2,2.88
								c-1.71,1.46-7.38,3.11-7.38,3.11V99.42z"/>
						</g>
					</g>
				</g>
			</g>
			<g id="XMLID_856_">
				<path id="XMLID_857_" class="st14" d="M369.48,147c1.7,0.64,3.4,0.68,5.72,1.78c2.04,0.96,2.9,1.32,5,1.43
					c2.28,0.11,8.64-2.6,14.24-5.21c6.6-3.07,13.63-8.63,16.33-11.68c5.49-6.2,10.17-13.95,12.59-18.09
					c1.99-3.41,4.05-8.37,7.19-8.99c5.5,0.58,7.74,10.16,4.17,16.08c-3.57,5.92-9.91,13.66-16.68,20.23
					c-3.28,3.18-9.29,6.63-17.89,10.31c-6.49,2.78-11.7,4.5-17.37,5.98c-1.72,0.45-2.94,1.09-6.18,2.2c-1.3,0.45-2.72,0.98-4.1,1.02
					c-1.75,0.05-3.51-0.1-5.21-0.56c-2.13-0.57-4.16-1.64-5.7-3.22c-0.85-0.87-1.55-1.91-1.91-3.07c-0.36-1.16-0.36-2.45,0.12-3.57
					c0.1-0.23,0.22-0.45,0.42-0.6c0.36-0.27,0.85-0.22,1.29-0.15c2.46,0.36,5.06,1.11,7.53,1.2c2.09,0.08,3.58-0.15,3.31-0.48
					c-0.26-0.33-1.5-0.29-3.08-1.19c-1.52-0.86-2.49-2.61-1.94-3.42C367.87,146.19,367.78,146.36,369.48,147z"/>
			</g>
			<path id="XMLID_842_" class="st14" d="M364.85,123.9c0,0,2.27-1.81,6.6-1.1c2.09,0.34,1.29,8.26-5.44,10.47
				c-4.38,1.44-5.27,0.7-6.68,4.3c0,0-2.64-0.55-2-4.58c0.64-4.03,2.4-7.7,5.34-11.17c1.93-2.28,2.06-4.2,3.01-3.55
				c1.07,0.73,0.42,2.62,0.42,2.62L364.85,123.9z"/>
		</g>
		<g id="Coffee_2_">
			<g id="XMLID_31_">
				<path id="XMLID_32_" class="st8" d="M86.73,166.73c16.07-5.92,41.7-5.92,57.24,0c15.54,5.92,15.54,15.52,0,21.43
					c-15.54,5.92-41.17,5.92-57.24,0C70.65,182.24,70.65,172.65,86.73,166.73z"/>
			</g>
			<g id="XMLID_29_">
				<path id="XMLID_30_" class="st7" d="M73.39,140.7l83.5,0.09l-6.33,98.38h-0.08c-0.4,3.58-3.74,7.12-10.12,9.85
					c-13.6,5.83-36.02,5.83-50.09,0c-6.6-2.74-10.06-6.27-10.47-9.85h-0.08L73.39,140.7z"/>
			</g>
			<g id="XMLID_27_">
				<path id="XMLID_28_" class="st0" d="M156.89,140.8l-1.29,19.98c-1.92,1.33-4.21,2.59-6.97,3.74c-18.06,7.48-47.83,7.48-66.51,0
					c-0.81-0.32-1.48-0.68-2.21-1.02c-2.98-1.4-5.24-2.95-5.24-2.95l-1.28-19.85L156.89,140.8z"/>
			</g>
			<g id="XMLID_9_">
				<g id="XMLID_25_">
					<path id="XMLID_26_" class="st2" d="M68.12,143.61v-15.04h9.73c1.3-0.68,2.72-1.34,4.28-1.97c18.68-7.48,48.45-7.48,66.51,0
						c1.5,0.62,2.83,1.29,4.09,1.97h9.45v15.04l0,0c0,4.9-4.51,9.8-13.54,13.54c-18.06,7.48-47.83,7.48-66.51,0
						C72.78,153.41,68.11,148.51,68.12,143.61z"/>
				</g>
				<g id="XMLID_23_">
					<path id="XMLID_24_" class="st2" d="M82.12,115.03c18.68-7.48,48.45-7.48,66.51,0c18.06,7.48,18.06,19.6,0,27.08
						c-18.06,7.48-47.83,7.48-66.51,0C63.45,134.63,63.45,122.51,82.12,115.03z"/>
				</g>
				<g id="XMLID_21_" class="st17">
					<path id="XMLID_22_" class="st4" d="M82.12,115.03c18.68-7.48,48.45-7.48,66.51,0c18.06,7.48,18.06,19.6,0,27.08
						c-18.06,7.48-47.83,7.48-66.51,0C63.45,134.63,63.45,122.51,82.12,115.03z"/>
				</g>
				<path id="XMLID_20_" class="st2" d="M80.11,124.34L80.11,124.34l3.76-13.75h62.56l3.77,13.75h0c1.4,3.91-1.88,8-9.86,11.01
					c-13.58,5.11-35.97,5.11-50.02,0C82.06,132.35,78.66,128.25,80.11,124.34z"/>
				<g id="XMLID_18_">
					<path id="XMLID_19_" class="st2" d="M93.06,103.59c12.49-4.54,32.41-4.54,44.48,0c12.08,4.54,12.08,11.91,0,16.45
						c-12.08,4.54-31.99,4.54-44.48,0C80.57,115.5,80.57,108.14,93.06,103.59z"/>
				</g>
				<g id="XMLID_16_" class="st17">
					<path id="XMLID_17_" class="st4" d="M93.06,103.59c12.49-4.54,32.41-4.54,44.48,0c12.08,4.54,12.08,11.91,0,16.45
						c-12.08,4.54-31.99,4.54-44.48,0C80.57,115.5,80.57,108.14,93.06,103.59z"/>
				</g>
				<g id="XMLID_14_">
					<path id="XMLID_15_" class="st2" d="M88.02,111.83c0.02,0.17,0.35,0.76,1.38,1.56c0.97,0.73,2.59,1.66,5.12,2.59
						c5.51,1.99,13.14,3.16,20.92,3.16c7.78,0,15.28-1.15,20.58-3.13c2.49-0.93,4.04-1.88,4.95-2.62c1.02-0.82,1.3-1.43,1.3-1.58
						c0-0.3-1.08-2.23-6.25-4.17c-5.3-1.99-12.8-3.13-20.58-3.13c-7.78,0-15.41,1.15-20.92,3.16
						C89.34,109.54,88.05,111.44,88.02,111.83z"/>
				</g>
				<g id="XMLID_12_" class="st3">
					<path id="XMLID_13_" d="M89.41,113.39c0.97,0.73,2.59,1.66,5.12,2.59c5.51,1.99,13.14,3.16,20.92,3.16
						c7.78,0,15.28-1.15,20.58-3.13c2.49-0.93,4.04-1.88,4.95-2.62c-0.91-0.74-2.46-1.69-4.95-2.62c-5.3-1.99-12.8-3.13-20.58-3.13
						c-7.78,0-15.41,1.15-20.92,3.16C92,111.72,90.38,112.63,89.41,113.39z"/>
				</g>
				<g id="XMLID_10_">
					<path id="XMLID_11_" class="st8" d="M101.92,113.67c-1.82-1.03-4.03-1.45-4.94-0.94c-0.91,0.51-0.17,1.77,1.65,2.82
						c1.82,1.04,4.03,1.47,4.94,0.94C104.48,115.96,103.74,114.7,101.92,113.67z"/>
				</g>
			</g>
			<g id="XMLID_6_">
				<path id="XMLID_8_" class="st12" d="M153.28,213.09c0,3.65-3.66,7.31-10.98,10.1c-14.64,5.58-38.78,5.58-53.93,0
					c-7.56-2.78-11.34-6.43-11.36-10.08l-2.34-35.66c0,3.88,4.02,7.76,12.06,10.72c16.07,5.92,41.7,5.92,57.24,0
					c7.77-2.96,11.65-6.84,11.65-10.72L153.28,213.09z"/>
			</g>
			<g id="XMLID_1_">
				<g id="XMLID_4_">
					<path id="XMLID_5_" class="st8" d="M120.21,215.2c1.36-1.83,2.11-4.07,3.21-6.05c2.19-3.94,5.32-6.62,9.33-8.21
						c0.54-0.21,1.2,0.01,1.45,0.53c2.03,4.13,0.78,9.91-3.41,14.11c-4.16,4.16-9.88,5.44-14,3.5c-0.23-0.11-0.3-0.57-0.11-0.68
						C118,217.62,119.19,216.58,120.21,215.2z"/>
				</g>
				<g id="XMLID_2_">
					<path id="XMLID_3_" class="st8" d="M130.51,199.8c-2.16,0.83-4.18,2.13-5.88,3.62c-1.82,1.6-3.22,3.64-4.26,5.82
						c-1.57,3.33-3.06,5.38-5.36,7.1c-0.5,0.37-1.26,0.27-1.61-0.25c-2.74-4.15-1.65-10.51,2.87-15.03
						c4.29-4.29,10.23-5.52,14.38-3.31C131.49,198.2,131.39,199.47,130.51,199.8z"/>
				</g>
			</g>
		</g>
	</g>
</g>
</svg>
